<?xml version="1.0" encoding="UTF-8" standalone="no"?><!DOCTYPE svg PUBLIC "-//W3C//DTD SVG 1.1//EN" "http://www.w3.org/Graphics/SVG/1.1/DTD/svg11.dtd"><svg width="100%" height="100%" viewBox="0 0 125 125" version="1.1" xmlns="http://www.w3.org/2000/svg" xmlns:xlink="http://www.w3.org/1999/xlink" xml:space="preserve" xmlns:serif="http://www.serif.com/" style="fill-rule:evenodd;clip-rule:evenodd;stroke-linejoin:round;stroke-miterlimit:2;"><g id="Gem"><path d="M102.273,78.509l-15.498,8.235l10.534,-24.426l4.964,16.191Z" style="fill:url(#_Linear1);"/><path d="M102.131,45.988l-4.822,16.33l-10.851,-24.602l15.673,8.272Z" style="fill:url(#_Linear2);"/><path d="M79.239,101.431l-15.554,-5.039l23.09,-9.648l-7.536,14.687Z" style="fill:url(#_Linear3);"/><path d="M46.305,101.708l-7.259,-15.544l24.639,10.228l-17.38,5.316Z" style="fill:url(#_Linear4);"/><path d="M22.932,78.378l6.136,-15.092l9.978,22.878l-16.114,-7.786Z" style="fill:url(#_Linear5);"/><path d="M23.79,45.006l14.605,-7.679l-9.327,25.959l-5.278,-18.28Z" style="fill:url(#_Linear6);"/><path d="M18.424,17.548l28.041,4.964l-8.07,14.815l-14.605,7.679l-5.366,-27.458Z" style="fill:url(#_Linear7);"/><path d="M62.646,0l-16.181,22.512l14.39,4.986l17.928,-4.353l-16.137,-23.145Z" style="fill:url(#_Linear8);"/><path d="M106.198,17.868l-27.415,5.277l7.675,14.571l15.673,8.272l4.067,-28.12Z" style="fill:url(#_Linear9);"/><path d="M124.5,62.21l-22.369,-16.222l-4.822,16.33l4.964,16.191l22.227,-16.299Z" style="fill:url(#_Linear10);"/><path d="M106.418,105.73l-4.145,-27.221l-15.498,8.235l-7.536,14.687l27.179,4.299Z" style="fill:url(#_Linear11);"/><path d="M62.053,124.5l17.186,-23.069l-15.554,-5.039l-17.38,5.316l15.748,22.792Z" style="fill:url(#_Linear12);"/><path d="M18.248,105.878l28.057,-4.17l-7.259,-15.544l-16.114,-7.786l-4.684,27.5Z" style="fill:url(#_Linear13);"/><path d="M0,62.411l22.932,15.967l6.136,-15.092l-5.278,-18.28l-23.79,17.405Z" style="fill:url(#_Linear14);"/><path d="M38.586,4.832l-20.162,12.716l28.041,4.964l-7.879,-17.68Z" style="fill:url(#_Linear15);"/><path d="M62.646,0l-24.06,4.832l7.879,17.68l16.181,-22.512Z" style="fill:url(#_Linear16);"/><path d="M86.198,4.686l-23.552,-4.686l16.137,23.145l7.415,-18.459Z" style="fill:url(#_Linear17);"/><path d="M106.198,17.868l-20,-13.182l-7.415,18.459l27.415,-5.277Z" style="fill:url(#_Linear18);"/><path d="M120.261,38.948l-14.063,-21.08l-4.067,28.12l18.13,-7.04Z" style="fill:url(#_Linear19);"/><path d="M124.5,62.21l-4.239,-23.262l-18.13,7.04l22.369,16.222Z" style="fill:url(#_Linear20);"/><path d="M120.345,86.311l4.155,-24.101l-22.227,16.299l18.072,7.802Z" style="fill:url(#_Linear21);"/><path d="M106.418,105.73l13.927,-19.419l-18.072,-7.802l4.145,27.221Z" style="fill:url(#_Linear22);"/><path d="M86.422,119.45l19.996,-13.72l-27.179,-4.299l7.183,18.019Z" style="fill:url(#_Linear23);"/><path d="M62.053,124.5l24.369,-5.05l-7.183,-18.019l-17.186,23.069Z" style="fill:url(#_Linear24);"/><path d="M38.377,120.04l23.676,4.46l-15.748,-22.792l-7.928,18.332Z" style="fill:url(#_Linear25);"/><path d="M18.248,105.878l20.129,14.162l7.928,-18.332l-28.057,4.17Z" style="fill:url(#_Linear26);"/><path d="M4.273,85.866l13.975,20.012l4.684,-27.5l-18.659,7.488Z" style="fill:url(#_Linear27);"/><path d="M0,62.411l4.273,23.455l18.659,-7.488l-22.932,-15.967Z" style="fill:url(#_Linear28);"/><path d="M4.919,38.093l-4.919,24.318l23.79,-17.405l-18.871,-6.913Z" style="fill:url(#_Linear29);"/><path d="M18.424,17.548l-13.505,20.545l18.871,6.913l-5.366,-27.458Z" style="fill:url(#_Linear30);"/><path d="M38.395,37.327l22.46,-9.829l25.603,10.218l10.851,24.602l-10.534,24.426l-23.09,9.648l-24.639,-10.228l-9.978,-22.878l9.327,-25.959Z" style="fill:url(#_Linear31);"/><path d="M46.465,22.512l-8.07,14.815l22.46,-9.829l-14.39,-4.986Z" style="fill:url(#_Linear32);"/><path d="M60.855,27.498l17.928,-4.353l7.675,14.571l-25.603,-10.218Z" style="fill:url(#_Linear33);"/></g><defs><linearGradient id="_Linear1" x1="0" y1="0" x2="1" y2="0.00359324" gradientUnits="userSpaceOnUse" gradientTransform="matrix(12.3179,-13.7315,21.3929,19.4089,87.7016,85.895)"><stop offset="0" style="stop-color:#4c8bf1;stop-opacity:1"/><stop offset="1" style="stop-color:#479ef4;stop-opacity:1"/></linearGradient><linearGradient id="_Linear2" x1="0" y1="0" x2="1" y2="-0.00360952" gradientUnits="userSpaceOnUse" gradientTransform="matrix(12.5967,13.9496,-21.6482,19.7711,87.7696,39.193)"><stop offset="0" style="stop-color:#46a8ec;stop-opacity:1"/><stop offset="1" style="stop-color:#45a7ef;stop-opacity:1"/></linearGradient><linearGradient id="_Linear3" x1="0" y1="0" x2="1" y2="0.00511747" gradientUnits="userSpaceOnUse" gradientTransform="matrix(2.91589,-9.20053,5.87866,1.8843,78.0465,99.6561)"><stop offset="0" style="stop-color:#852ee7;stop-opacity:1"/><stop offset="1" style="stop-color:#8530e3;stop-opacity:1"/></linearGradient><linearGradient id="_Linear4" x1="0" y1="0" x2="1" y2="0.00508573" gradientUnits="userSpaceOnUse" gradientTransform="matrix(-3.29873,10.7594,-6.73224,-2.08753,49.7065,91.1251)"><stop offset="0" style="stop-color:#a335cd;stop-opacity:1"/><stop offset="1" style="stop-color:#7a30ce;stop-opacity:1"/></linearGradient><linearGradient id="_Linear5" x1="0" y1="0" x2="1" y2="-0.00400189" gradientUnits="userSpaceOnUse" gradientTransform="matrix(13.2934,11.8063,-16.4545,18.7379,24.9204,73.4282)"><stop offset="0" style="stop-color:#df2fb7;stop-opacity:1"/><stop offset="1" style="stop-color:#df3db9;stop-opacity:1"/></linearGradient><linearGradient id="_Linear6" x1="0" y1="0" x2="1" y2="0.00310784" gradientUnits="userSpaceOnUse" gradientTransform="matrix(-10.5691,13.8661,-24.2689,-18.7089,37.0623,39.4691)"><stop offset="0" style="stop-color:#d55ef5;stop-opacity:1"/><stop offset="1" style="stop-color:#fa64cf;stop-opacity:1"/></linearGradient><linearGradient id="_Linear7" x1="0" y1="0" x2="1" y2="-0.00544655" gradientUnits="userSpaceOnUse" gradientTransform="matrix(18.3623,12.9169,-12.5059,17.9802,20.0205,19.5737)"><stop offset="0" style="stop-color:#b40bd7;stop-opacity:1"/><stop offset="1" style="stop-color:#cf2de1;stop-opacity:1"/></linearGradient><linearGradient id="_Linear8" x1="0" y1="0" x2="1" y2="-0.00582289" gradientUnits="userSpaceOnUse" gradientTransform="matrix(-20.5931,-12.1619,10.2312,-17.5211,75.1168,24.0658)"><stop offset="0" style="stop-color:#797ffb;stop-opacity:1"/><stop offset="1" style="stop-color:#488df4;stop-opacity:1"/></linearGradient><linearGradient id="_Linear9" x1="0" y1="0" x2="1" y2="-0.0032491" gradientUnits="userSpaceOnUse" gradientTransform="matrix(24.823,8.18441,-8.35032,25.6143,79.1885,24.0023)"><stop offset="0" style="stop-color:#59d4eb;stop-opacity:1"/><stop offset="1" style="stop-color:#2fbcda;stop-opacity:1"/></linearGradient><linearGradient id="_Linear10" x1="0" y1="0" x2="1" y2="-0.00250579" gradientUnits="userSpaceOnUse" gradientTransform="matrix(-6.96439,-24.7347,29.249,-8.32917,109.559,72.1423)"><stop offset="0" style="stop-color:#33bedb;stop-opacity:1"/><stop offset="0.46" style="stop-color:#43d4ef;stop-opacity:1"/><stop offset="1" style="stop-color:#47daf5;stop-opacity:1"/></linearGradient><linearGradient id="_Linear11" x1="0" y1="0" x2="1" y2="-0.00567547" gradientUnits="userSpaceOnUse" gradientTransform="matrix(17.4468,16.8307,-16.6612,17.4677,88.1655,87.9822)"><stop offset="0" style="stop-color:#643dd9;stop-opacity:1"/><stop offset="1" style="stop-color:#5086f6;stop-opacity:1"/></linearGradient><linearGradient id="_Linear12" x1="0" y1="0" x2="1" y2="0.000608511" gradientUnits="userSpaceOnUse" gradientTransform="matrix(1.08122,-23.8923,20.1731,0.923303,62.5089,123.202)"><stop offset="0" style="stop-color:#b54ce8;stop-opacity:1"/><stop offset="1" style="stop-color:#874be6;stop-opacity:1"/></linearGradient><linearGradient id="_Linear13" x1="0" y1="0" x2="1" y2="0.0051404" gradientUnits="userSpaceOnUse" gradientTransform="matrix(12.5028,-21.0611,20.3402,12.2122,19.2257,105.373)"><stop offset="0" style="stop-color:#bf47e0;stop-opacity:1"/><stop offset="0.15" style="stop-color:#c83ddf;stop-opacity:1"/><stop offset="0.32" style="stop-color:#cb3adf;stop-opacity:1"/><stop offset="1" style="stop-color:#d331de;stop-opacity:1"/></linearGradient><linearGradient id="_Linear14" x1="0" y1="0" x2="1" y2="0.00375987" gradientUnits="userSpaceOnUse" gradientTransform="matrix(-11.1251,24.4862,-27.7951,-12.7721,23.8491,46.4222)"><stop offset="0" style="stop-color:#fdaea2;stop-opacity:1"/><stop offset="1" style="stop-color:#fc62cb;stop-opacity:1"/></linearGradient><linearGradient id="_Linear15" x1="0" y1="0" x2="1" y2="0.000777663" gradientUnits="userSpaceOnUse" gradientTransform="matrix(-22.5233,0.983436,-0.613014,-14.1994,42.6687,15.7244)"><stop offset="0" style="stop-color:#8f4bf4;stop-opacity:1"/><stop offset="0.44" style="stop-color:#7555f2;stop-opacity:1"/><stop offset="1" style="stop-color:#6f57f1;stop-opacity:1"/></linearGradient><linearGradient id="_Linear16" x1="0" y1="0" x2="1" y2="-0.00475845" gradientUnits="userSpaceOnUse" gradientTransform="matrix(-12.9124,-6.29987,5.82825,-12.0817,53.8624,11.5805)"><stop offset="0" style="stop-color:#cc65fe;stop-opacity:1"/><stop offset="1" style="stop-color:#8f41f4;stop-opacity:1"/></linearGradient><linearGradient id="_Linear17" x1="0" y1="0" x2="1" y2="-0.00173152" gradientUnits="userSpaceOnUse" gradientTransform="matrix(-2.70606,-17.8805,17.3735,-2.65924,78.579,21.0054)"><stop offset="0" style="stop-color:#30e5e4;stop-opacity:1"/><stop offset="1" style="stop-color:#38e2e2;stop-opacity:1"/></linearGradient><linearGradient id="_Linear18" x1="0" y1="0" x2="1" y2="0.00724692" gradientUnits="userSpaceOnUse" gradientTransform="matrix(15.9244,-8.97318,5.92212,10.6294,79.8787,21.2849)"><stop offset="0" style="stop-color:#28ecbc;stop-opacity:1"/><stop offset="1" style="stop-color:#31d8d4;stop-opacity:1"/></linearGradient><linearGradient id="_Linear19" x1="0" y1="0" x2="1" y2="-0.00194712" gradientUnits="userSpaceOnUse" gradientTransform="matrix(-14.1084,-4.09991,6.28689,-21.8802,118.861,37.8856)"><stop offset="0" style="stop-color:#7cfbfc;stop-opacity:1"/><stop offset="1" style="stop-color:#75f3f4;stop-opacity:1"/></linearGradient><linearGradient id="_Linear20" x1="0" y1="0" x2="1" y2="-0.00514527" gradientUnits="userSpaceOnUse" gradientTransform="matrix(-12.3409,-18.088,18.4861,-12.756,124.146,61.5702)"><stop offset="0" style="stop-color:#8680ea;stop-opacity:1"/><stop offset="1" style="stop-color:#3ab9d9;stop-opacity:1"/></linearGradient><linearGradient id="_Linear21" x1="0" y1="0" x2="1" y2="0.00176393" gradientUnits="userSpaceOnUse" gradientTransform="matrix(14.9723,-2.62195,2.811,16.2344,106.899,77.995)"><stop offset="0" style="stop-color:#2a91d6;stop-opacity:1"/><stop offset="1" style="stop-color:#3980d9;stop-opacity:1"/></linearGradient><linearGradient id="_Linear22" x1="0" y1="0" x2="1" y2="-0.00011756" gradientUnits="userSpaceOnUse" gradientTransform="matrix(15.9971,0.253067,-0.378681,24.2099,103.408,88.2978)"><stop offset="0" style="stop-color:#5661f2;stop-opacity:1"/><stop offset="0.47" style="stop-color:#589bf0;stop-opacity:1"/><stop offset="1" style="stop-color:#58acf0;stop-opacity:1"/></linearGradient><linearGradient id="_Linear23" x1="0" y1="0" x2="1" y2="0.00541528" gradientUnits="userSpaceOnUse" gradientTransform="matrix(-3.65441,10.4058,-6.81763,-2.42153,92.1782,104.274)"><stop offset="0" style="stop-color:#4f12ab;stop-opacity:1"/><stop offset="1" style="stop-color:#4110d2;stop-opacity:1"/></linearGradient><linearGradient id="_Linear24" x1="0" y1="0" x2="1" y2="0.00501279" gradientUnits="userSpaceOnUse" gradientTransform="matrix(17.463,-9.47786,8.86184,16.5137,64.6079,122.462)"><stop offset="0" style="stop-color:#7259f2;stop-opacity:1"/><stop offset="1" style="stop-color:#7156f3;stop-opacity:1"/></linearGradient><linearGradient id="_Linear25" x1="0" y1="0" x2="1" y2="-0.000515232" gradientUnits="userSpaceOnUse" gradientTransform="matrix(0.726628,16.825,-16.0146,0.699501,47.3338,105.342)"><stop offset="0" style="stop-color:#c360fb;stop-opacity:1"/><stop offset="1" style="stop-color:#9041f4;stop-opacity:1"/></linearGradient><linearGradient id="_Linear26" x1="0" y1="0" x2="1" y2="-0.00273829" gradientUnits="userSpaceOnUse" gradientTransform="matrix(-19.4376,-3.17198,2.04921,-12.7002,40.3139,110.577)"><stop offset="0" style="stop-color:#c75cf6;stop-opacity:1"/><stop offset="1" style="stop-color:#a04eea;stop-opacity:1"/></linearGradient><linearGradient id="_Linear27" x1="0" y1="0" x2="1" y2="-0.00104293" gradientUnits="userSpaceOnUse" gradientTransform="matrix(-2.42226,-17.7955,25.9328,-3.57002,17.8431,104.563)"><stop offset="0" style="stop-color:#ef7f4f;stop-opacity:1"/><stop offset="1" style="stop-color:#d630c8;stop-opacity:1"/></linearGradient><linearGradient id="_Linear28" x1="0" y1="0" x2="1" y2="-0.00209989" gradientUnits="userSpaceOnUse" gradientTransform="matrix(19.3202,3.76133,-3.74012,19.4297,2.39393,74.6807)"><stop offset="0" style="stop-color:#c62cda;stop-opacity:1"/><stop offset="1" style="stop-color:#f856ce;stop-opacity:1"/></linearGradient><linearGradient id="_Linear29" x1="0" y1="0" x2="1" y2="0.00321435" gradientUnits="userSpaceOnUse" gradientTransform="matrix(17.1477,-5.51484,5.57367,17.5278,2.8606,51.2393)"><stop offset="0" style="stop-color:#ed7d54;stop-opacity:1"/><stop offset="0.46" style="stop-color:#e1439e;stop-opacity:1"/><stop offset="1" style="stop-color:#de33b3;stop-opacity:1"/></linearGradient><linearGradient id="_Linear30" x1="0" y1="0" x2="1" y2="-0.00340344" gradientUnits="userSpaceOnUse" gradientTransform="matrix(9.50853,16.4833,-23.7139,13.8352,12.999,26.9427)"><stop offset="0" style="stop-color:#de2fb4;stop-opacity:1"/><stop offset="1" style="stop-color:#e23fbb;stop-opacity:1"/></linearGradient><linearGradient id="_Linear31" x1="0" y1="0" x2="1" y2="0.00563337" gradientUnits="userSpaceOnUse" gradientTransform="matrix(47.0438,-46.5515,46.4681,47.4937,38.8416,86.2414)"><stop offset="0" style="stop-color:#fa5fba;stop-opacity:1"/><stop offset="0.16" style="stop-color:#ac50e1;stop-opacity:1"/><stop offset="0.34" style="stop-color:#954bec;stop-opacity:1"/><stop offset="0.67" style="stop-color:#4a8df5;stop-opacity:1"/><stop offset="1" style="stop-color:#38c3e0;stop-opacity:1"/></linearGradient><linearGradient id="_Linear32" x1="0" y1="0" x2="1" y2="0.0030124" gradientUnits="userSpaceOnUse" gradientTransform="matrix(17.2848,-3.15239,2.05596,11.4012,43.1319,30.2256)"><stop offset="0" style="stop-color:#6840da;stop-opacity:1"/><stop offset="0.49" style="stop-color:#537af1;stop-opacity:1"/><stop offset="1" style="stop-color:#4d8cf8;stop-opacity:1"/></linearGradient><linearGradient id="_Linear33" x1="0" y1="0" x2="1" y2="-0.00550221" gradientUnits="userSpaceOnUse" gradientTransform="matrix(-14.0482,-11.2181,11.1548,-14.1279,85.0379,36.6098)"><stop offset="0" style="stop-color:#47abf4;stop-opacity:1"/><stop offset="0.53" style="stop-color:#4aaaf4;stop-opacity:1"/><stop offset="1" style="stop-color:#52a8f2;stop-opacity:1"/></linearGradient></defs></svg>