<?xml version="1.0" encoding="UTF-8" standalone="no"?><!DOCTYPE svg PUBLIC "-//W3C//DTD SVG 1.1//EN" "http://www.w3.org/Graphics/SVG/1.1/DTD/svg11.dtd"><svg width="100%" height="100%" viewBox="0 0 640 200" version="1.1" xmlns="http://www.w3.org/2000/svg" xmlns:xlink="http://www.w3.org/1999/xlink" xml:space="preserve" xmlns:serif="http://www.serif.com/" style="fill-rule:evenodd;clip-rule:evenodd;stroke-linejoin:round;stroke-miterlimit:2;"><rect id="Background" x="0" y="0" width="640" height="200" style="fill:#fff;"/><rect id="Tick" x="0" y="0" width="20" height="200" style="fill:#3160c5;"/><g id="Gem"><path d="M181.365,121.678l-20.664,10.981l14.044,-32.568l6.62,21.587Z" style="fill:url(#_Linear1);"/><path d="M181.174,78.317l-6.429,21.774l-14.468,-32.803l20.897,11.029Z" style="fill:url(#_Linear2);"/><path d="M150.652,152.241l-20.739,-6.719l30.788,-12.863l-10.049,19.582Z" style="fill:url(#_Linear3);"/><path d="M106.74,152.611l-9.679,-20.726l32.852,13.637l-23.173,7.089Z" style="fill:url(#_Linear4);"/><path d="M75.576,121.503l8.181,-20.122l13.304,30.504l-21.485,-10.382Z" style="fill:url(#_Linear5);"/><path d="M76.72,77.008l19.473,-10.239l-12.436,34.612l-7.037,-24.373Z" style="fill:url(#_Linear6);"/><path d="M69.565,40.397l37.389,6.619l-10.761,19.753l-19.473,10.239l-7.155,-36.611Z" style="fill:url(#_Linear7);"/><path d="M128.528,17l-21.574,30.016l19.186,6.648l23.904,-5.805l-21.516,-30.859Z" style="fill:url(#_Linear8);"/><path d="M186.597,40.824l-36.553,7.035l10.233,19.429l20.897,11.029l5.423,-37.493Z" style="fill:url(#_Linear9);"/><path d="M211,99.946l-29.826,-21.629l-6.429,21.774l6.62,21.587l29.635,-21.732Z" style="fill:url(#_Linear10);"/><path d="M186.89,157.973l-5.525,-36.295l-20.664,10.981l-10.049,19.582l36.238,5.732Z" style="fill:url(#_Linear11);"/><path d="M127.737,183l22.915,-30.759l-20.739,-6.719l-23.173,7.089l20.997,30.389Z" style="fill:url(#_Linear12);"/><path d="M69.33,158.171l37.41,-5.56l-9.679,-20.726l-21.485,-10.382l-6.246,36.668Z" style="fill:url(#_Linear13);"/><path d="M45,100.215l30.576,21.288l8.181,-20.122l-7.037,-24.373l-31.72,23.207Z" style="fill:url(#_Linear14);"/><path d="M96.449,23.442l-26.884,16.955l37.389,6.619l-10.505,-23.574Z" style="fill:url(#_Linear15);"/><path d="M128.528,17l-32.079,6.442l10.505,23.574l21.574,-30.016Z" style="fill:url(#_Linear16);"/><path d="M159.931,23.249l-31.403,-6.249l21.516,30.859l9.887,-24.61Z" style="fill:url(#_Linear17);"/><path d="M186.597,40.824l-26.666,-17.575l-9.887,24.61l36.553,-7.035Z" style="fill:url(#_Linear18);"/><path d="M205.348,68.931l-18.751,-28.107l-5.423,37.493l24.174,-9.386Z" style="fill:url(#_Linear19);"/><path d="M211,99.946l-5.652,-31.015l-24.174,9.386l29.826,21.629Z" style="fill:url(#_Linear20);"/><path d="M205.46,132.081l5.54,-32.135l-29.635,21.732l24.095,10.403Z" style="fill:url(#_Linear21);"/><path d="M186.89,157.973l18.57,-25.892l-24.095,-10.403l5.525,36.295Z" style="fill:url(#_Linear22);"/><path d="M160.23,176.266l26.66,-18.293l-36.238,-5.732l9.578,24.025Z" style="fill:url(#_Linear23);"/><path d="M127.737,183l32.493,-6.734l-9.578,-24.025l-22.915,30.759Z" style="fill:url(#_Linear24);"/><path d="M96.169,177.054l31.568,5.946l-20.997,-30.389l-10.571,24.443Z" style="fill:url(#_Linear25);"/><path d="M69.33,158.171l26.839,18.883l10.571,-24.443l-37.41,5.56Z" style="fill:url(#_Linear26);"/><path d="M50.697,131.488l18.633,26.683l6.246,-36.668l-24.879,9.985Z" style="fill:url(#_Linear27);"/><path d="M45,100.215l5.697,31.273l24.879,-9.985l-30.576,-21.288Z" style="fill:url(#_Linear28);"/><path d="M51.559,67.791l-6.559,32.424l31.72,-23.207l-25.161,-9.217Z" style="fill:url(#_Linear29);"/><path d="M69.565,40.397l-18.006,27.394l25.161,9.217l-7.155,-36.611Z" style="fill:url(#_Linear30);"/><path d="M96.193,66.769l29.947,-13.105l34.137,13.624l14.468,32.803l-14.044,32.568l-30.788,12.863l-32.852,-13.637l-13.304,-30.504l12.436,-34.612Z" style="fill:url(#_Linear31);"/><path d="M106.954,47.016l-10.761,19.753l29.947,-13.105l-19.186,-6.648Z" style="fill:url(#_Linear32);"/><path d="M126.14,53.664l23.904,-5.805l10.233,19.429l-34.137,-13.624Z" style="fill:url(#_Linear33);"/></g><g id="Bar"><path d="M595,52.75c0,-4.277 -3.473,-7.75 -7.75,-7.75l-329.5,0c-4.277,0 -7.75,3.473 -7.75,7.75l0,15.5c0,4.277 3.473,7.75 7.75,7.75l329.5,0c4.277,0 7.75,-3.473 7.75,-7.75l0,-15.5Z" style="fill:#e8e9ea;"/><path d="M463,52.75c0,-4.277 -3.473,-7.75 -7.75,-7.75l-197.5,0c-4.277,0 -7.75,3.473 -7.75,7.75l0,15.5c0,4.277 3.473,7.75 7.75,7.75l197.5,0c4.277,0 7.75,-3.473 7.75,-7.75l0,-15.5Z" style="fill:#c2c3c4;"/><path d="M381,52.75c0,-4.277 -3.473,-7.75 -7.75,-7.75l-115.5,0c-4.277,0 -7.75,3.473 -7.75,7.75l0,15.5c0,4.277 3.473,7.75 7.75,7.75l115.5,0c4.277,0 7.75,-3.473 7.75,-7.75l0,-15.5Z" style="fill:#3160c5;"/></g><path id="Name" d="M257,151.003l0,-58.006l38.572,0l0,11.219l-25.909,0l0,11.884l22.077,0l0,11.135l-22.077,0l0,23.768l-12.663,0Z" style="fill:#3c3c3c;fill-rule:nonzero;"/><path d="M334.311,151.003l-4.165,-13.795l-19.411,0l-4.166,13.795l-12.83,0l19.162,-58.006l15.662,0l18.911,58.006l-13.163,0Zm-13.746,-46.538l-0.416,0l-6.415,22.023l13.329,0l-6.498,-22.023Z" style="fill:#3c3c3c;fill-rule:nonzero;"/><path d="M376.549,152c-3.943,0 -7.498,-0.623 -10.664,-1.87c-3.165,-1.246 -5.859,-3.102 -8.081,-5.568c-2.221,-2.465 -3.943,-5.54 -5.165,-9.224c-1.222,-3.684 -1.833,-7.992 -1.833,-12.922c0,-4.876 0.611,-9.211 1.833,-13.006c1.222,-3.795 2.944,-6.981 5.165,-9.557c2.222,-2.576 4.916,-4.529 8.081,-5.859c3.166,-1.329 6.721,-1.994 10.664,-1.994c5.387,0 9.83,1.094 13.329,3.283c3.499,2.188 6.304,5.637 8.415,10.346l-10.914,5.651c-0.777,-2.438 -1.985,-4.391 -3.624,-5.859c-1.638,-1.468 -4.04,-2.202 -7.206,-2.202c-3.721,0 -6.706,1.205 -8.956,3.615c-2.249,2.41 -3.374,5.914 -3.374,10.512l0,9.308c0,4.598 1.125,8.102 3.374,10.512c2.25,2.41 5.235,3.615 8.956,3.615c3.11,0 5.596,-0.845 7.456,-2.534c1.861,-1.69 3.235,-3.726 4.124,-6.108l10.33,5.983c-2.166,4.432 -5.012,7.853 -8.539,10.263c-3.527,2.41 -7.984,3.615 -13.371,3.615Z" style="fill:#3c3c3c;fill-rule:nonzero;"/><path d="M407.29,151.003l0,-58.006l39.572,0l0,11.219l-26.909,0l0,11.884l23.077,0l0,11.135l-23.077,0l0,12.549l26.909,0l0,11.219l-39.572,0Z" style="fill:#3c3c3c;fill-rule:nonzero;"/><path d="M482.102,104.216l0,46.787l-12.663,0l0,-46.787l-15.746,0l0,-11.219l44.154,0l0,11.219l-15.745,0Z" style="fill:#3c3c3c;fill-rule:nonzero;"/><path d="M524.34,152c-5.11,0 -9.442,-0.873 -12.996,-2.618c-3.555,-1.745 -6.582,-4.002 -9.081,-6.773l8.331,-8.393c3.943,4.432 8.803,6.648 14.579,6.648c3.11,0 5.415,-0.637 6.915,-1.911c1.499,-1.274 2.249,-2.964 2.249,-5.069c0,-1.607 -0.444,-2.95 -1.333,-4.031c-0.889,-1.08 -2.694,-1.814 -5.415,-2.202l-5.748,-0.748c-6.165,-0.776 -10.678,-2.632 -13.538,-5.568c-2.861,-2.936 -4.291,-6.842 -4.291,-11.717c0,-2.604 0.5,-4.986 1.5,-7.147c1,-2.161 2.43,-4.017 4.29,-5.568c1.861,-1.551 4.138,-2.756 6.832,-3.615c2.693,-0.859 5.762,-1.288 9.205,-1.288c4.388,0 8.248,0.693 11.58,2.078c3.333,1.385 6.193,3.407 8.581,6.066l-8.414,8.476c-1.388,-1.606 -3.069,-2.922 -5.04,-3.947c-1.972,-1.025 -4.457,-1.537 -7.456,-1.537c-2.833,0 -4.943,0.498 -6.332,1.496c-1.388,0.997 -2.083,2.382 -2.083,4.155c0,1.994 0.542,3.435 1.625,4.321c1.083,0.886 2.846,1.524 5.29,1.911l5.748,0.915c5.999,0.941 10.442,2.783 13.33,5.526c2.888,2.742 4.332,6.634 4.332,11.676c0,2.77 -0.5,5.318 -1.5,7.645c-0.999,2.327 -2.457,4.321 -4.373,5.984c-1.916,1.662 -4.291,2.95 -7.123,3.864c-2.833,0.914 -6.054,1.371 -9.664,1.371Z" style="fill:#3c3c3c;fill-rule:nonzero;"/><defs><linearGradient id="_Linear1" x1="0" y1="0" x2="1" y2="0.00359324" gradientUnits="userSpaceOnUse" gradientTransform="matrix(16.4238,-18.3086,28.5239,25.8786,161.935,131.527)"><stop offset="0" style="stop-color:#4c8bf1;stop-opacity:1"/><stop offset="1" style="stop-color:#479ef4;stop-opacity:1"/></linearGradient><linearGradient id="_Linear2" x1="0" y1="0" x2="1" y2="-0.00360952" gradientUnits="userSpaceOnUse" gradientTransform="matrix(16.7956,18.5995,-28.8643,26.3614,162.026,69.2573)"><stop offset="0" style="stop-color:#46a8ec;stop-opacity:1"/><stop offset="1" style="stop-color:#45a7ef;stop-opacity:1"/></linearGradient><linearGradient id="_Linear3" x1="0" y1="0" x2="1" y2="0.00511747" gradientUnits="userSpaceOnUse" gradientTransform="matrix(3.88786,-12.2674,7.83822,2.5124,149.062,149.875)"><stop offset="0" style="stop-color:#852ee7;stop-opacity:1"/><stop offset="1" style="stop-color:#8530e3;stop-opacity:1"/></linearGradient><linearGradient id="_Linear4" x1="0" y1="0" x2="1" y2="0.00508573" gradientUnits="userSpaceOnUse" gradientTransform="matrix(-4.39831,14.3458,-8.97632,-2.78338,111.275,138.5)"><stop offset="0" style="stop-color:#a335cd;stop-opacity:1"/><stop offset="1" style="stop-color:#7a30ce;stop-opacity:1"/></linearGradient><linearGradient id="_Linear5" x1="0" y1="0" x2="1" y2="-0.00400189" gradientUnits="userSpaceOnUse" gradientTransform="matrix(17.7245,15.7417,-21.9393,24.9838,78.2272,114.904)"><stop offset="0" style="stop-color:#df2fb7;stop-opacity:1"/><stop offset="1" style="stop-color:#df3db9;stop-opacity:1"/></linearGradient><linearGradient id="_Linear6" x1="0" y1="0" x2="1" y2="0.00310784" gradientUnits="userSpaceOnUse" gradientTransform="matrix(-14.0922,18.4881,-32.3585,-24.9452,94.4165,69.6254)"><stop offset="0" style="stop-color:#d55ef5;stop-opacity:1"/><stop offset="1" style="stop-color:#fa64cf;stop-opacity:1"/></linearGradient><linearGradient id="_Linear7" x1="0" y1="0" x2="1" y2="-0.00544655" gradientUnits="userSpaceOnUse" gradientTransform="matrix(24.483,17.2226,-16.6745,23.9736,71.694,43.0982)"><stop offset="0" style="stop-color:#b40bd7;stop-opacity:1"/><stop offset="1" style="stop-color:#cf2de1;stop-opacity:1"/></linearGradient><linearGradient id="_Linear8" x1="0" y1="0" x2="1" y2="-0.00582289" gradientUnits="userSpaceOnUse" gradientTransform="matrix(-27.4575,-16.2158,13.6416,-23.3615,145.156,49.0878)"><stop offset="0" style="stop-color:#797ffb;stop-opacity:1"/><stop offset="1" style="stop-color:#488df4;stop-opacity:1"/></linearGradient><linearGradient id="_Linear9" x1="0" y1="0" x2="1" y2="-0.0032491" gradientUnits="userSpaceOnUse" gradientTransform="matrix(33.0973,10.9125,-11.1338,34.1524,150.585,49.003)"><stop offset="0" style="stop-color:#59d4eb;stop-opacity:1"/><stop offset="1" style="stop-color:#2fbcda;stop-opacity:1"/></linearGradient><linearGradient id="_Linear10" x1="0" y1="0" x2="1" y2="-0.00250579" gradientUnits="userSpaceOnUse" gradientTransform="matrix(-9.28585,-32.9795,38.9987,-11.1056,191.078,113.19)"><stop offset="0" style="stop-color:#33bedb;stop-opacity:1"/><stop offset="0.46" style="stop-color:#43d4ef;stop-opacity:1"/><stop offset="1" style="stop-color:#47daf5;stop-opacity:1"/></linearGradient><linearGradient id="_Linear11" x1="0" y1="0" x2="1" y2="-0.00567547" gradientUnits="userSpaceOnUse" gradientTransform="matrix(23.2624,22.4409,-22.215,23.2902,162.554,134.31)"><stop offset="0" style="stop-color:#643dd9;stop-opacity:1"/><stop offset="1" style="stop-color:#5086f6;stop-opacity:1"/></linearGradient><linearGradient id="_Linear12" x1="0" y1="0" x2="1" y2="0.000608511" gradientUnits="userSpaceOnUse" gradientTransform="matrix(1.44163,-31.8563,26.8975,1.23107,128.345,181.269)"><stop offset="0" style="stop-color:#b54ce8;stop-opacity:1"/><stop offset="1" style="stop-color:#874be6;stop-opacity:1"/></linearGradient><linearGradient id="_Linear13" x1="0" y1="0" x2="1" y2="0.0051404" gradientUnits="userSpaceOnUse" gradientTransform="matrix(16.6704,-28.0815,27.1203,16.2829,70.6342,157.497)"><stop offset="0" style="stop-color:#bf47e0;stop-opacity:1"/><stop offset="0.15" style="stop-color:#c83ddf;stop-opacity:1"/><stop offset="0.32" style="stop-color:#cb3adf;stop-opacity:1"/><stop offset="1" style="stop-color:#d331de;stop-opacity:1"/></linearGradient><linearGradient id="_Linear14" x1="0" y1="0" x2="1" y2="0.00375987" gradientUnits="userSpaceOnUse" gradientTransform="matrix(-14.8334,32.6483,-37.0601,-17.0294,76.7987,78.8962)"><stop offset="0" style="stop-color:#fdaea2;stop-opacity:1"/><stop offset="1" style="stop-color:#fc62cb;stop-opacity:1"/></linearGradient><linearGradient id="_Linear15" x1="0" y1="0" x2="1" y2="0.000777663" gradientUnits="userSpaceOnUse" gradientTransform="matrix(-30.031,1.31125,-0.817353,-18.9325,101.892,37.9659)"><stop offset="0" style="stop-color:#8f4bf4;stop-opacity:1"/><stop offset="0.44" style="stop-color:#7555f2;stop-opacity:1"/><stop offset="1" style="stop-color:#6f57f1;stop-opacity:1"/></linearGradient><linearGradient id="_Linear16" x1="0" y1="0" x2="1" y2="-0.00475845" gradientUnits="userSpaceOnUse" gradientTransform="matrix(-17.2166,-8.39983,7.77099,-16.1089,116.817,32.4407)"><stop offset="0" style="stop-color:#cc65fe;stop-opacity:1"/><stop offset="1" style="stop-color:#8f41f4;stop-opacity:1"/></linearGradient><linearGradient id="_Linear17" x1="0" y1="0" x2="1" y2="-0.00173152" gradientUnits="userSpaceOnUse" gradientTransform="matrix(-3.60808,-23.8406,23.1646,-3.54566,149.772,45.0072)"><stop offset="0" style="stop-color:#30e5e4;stop-opacity:1"/><stop offset="1" style="stop-color:#38e2e2;stop-opacity:1"/></linearGradient><linearGradient id="_Linear18" x1="0" y1="0" x2="1" y2="0.00724692" gradientUnits="userSpaceOnUse" gradientTransform="matrix(21.2326,-11.9642,7.89616,14.1725,151.505,45.3799)"><stop offset="0" style="stop-color:#28ecbc;stop-opacity:1"/><stop offset="1" style="stop-color:#31d8d4;stop-opacity:1"/></linearGradient><linearGradient id="_Linear19" x1="0" y1="0" x2="1" y2="-0.00194712" gradientUnits="userSpaceOnUse" gradientTransform="matrix(-18.8112,-5.46655,8.38252,-29.1736,203.481,67.5141)"><stop offset="0" style="stop-color:#7cfbfc;stop-opacity:1"/><stop offset="1" style="stop-color:#75f3f4;stop-opacity:1"/></linearGradient><linearGradient id="_Linear20" x1="0" y1="0" x2="1" y2="-0.00514527" gradientUnits="userSpaceOnUse" gradientTransform="matrix(-16.4545,-24.1174,24.6482,-17.008,210.528,99.0936)"><stop offset="0" style="stop-color:#8680ea;stop-opacity:1"/><stop offset="1" style="stop-color:#3ab9d9;stop-opacity:1"/></linearGradient><linearGradient id="_Linear21" x1="0" y1="0" x2="1" y2="0.00176393" gradientUnits="userSpaceOnUse" gradientTransform="matrix(19.9631,-3.49594,3.748,21.6459,187.532,120.993)"><stop offset="0" style="stop-color:#2a91d6;stop-opacity:1"/><stop offset="1" style="stop-color:#3980d9;stop-opacity:1"/></linearGradient><linearGradient id="_Linear22" x1="0" y1="0" x2="1" y2="-0.00011756" gradientUnits="userSpaceOnUse" gradientTransform="matrix(21.3295,0.337422,-0.504908,32.2799,182.877,134.73)"><stop offset="0" style="stop-color:#5661f2;stop-opacity:1"/><stop offset="0.47" style="stop-color:#589bf0;stop-opacity:1"/><stop offset="1" style="stop-color:#58acf0;stop-opacity:1"/></linearGradient><linearGradient id="_Linear23" x1="0" y1="0" x2="1" y2="0.00541528" gradientUnits="userSpaceOnUse" gradientTransform="matrix(-4.87255,13.8744,-9.09018,-3.22871,167.904,156.032)"><stop offset="0" style="stop-color:#4f12ab;stop-opacity:1"/><stop offset="1" style="stop-color:#4110d2;stop-opacity:1"/></linearGradient><linearGradient id="_Linear24" x1="0" y1="0" x2="1" y2="0.00501279" gradientUnits="userSpaceOnUse" gradientTransform="matrix(23.284,-12.6372,11.8158,22.0183,131.144,180.282)"><stop offset="0" style="stop-color:#7259f2;stop-opacity:1"/><stop offset="1" style="stop-color:#7156f3;stop-opacity:1"/></linearGradient><linearGradient id="_Linear25" x1="0" y1="0" x2="1" y2="-0.000515232" gradientUnits="userSpaceOnUse" gradientTransform="matrix(0.968838,22.4333,-21.3529,0.932668,108.112,157.456)"><stop offset="0" style="stop-color:#c360fb;stop-opacity:1"/><stop offset="1" style="stop-color:#9041f4;stop-opacity:1"/></linearGradient><linearGradient id="_Linear26" x1="0" y1="0" x2="1" y2="-0.00273829" gradientUnits="userSpaceOnUse" gradientTransform="matrix(-25.9168,-4.22931,2.73229,-16.9337,98.7519,164.435)"><stop offset="0" style="stop-color:#c75cf6;stop-opacity:1"/><stop offset="1" style="stop-color:#a04eea;stop-opacity:1"/></linearGradient><linearGradient id="_Linear27" x1="0" y1="0" x2="1" y2="-0.00104293" gradientUnits="userSpaceOnUse" gradientTransform="matrix(-3.22968,-23.7274,34.577,-4.76003,68.7908,156.417)"><stop offset="0" style="stop-color:#ef7f4f;stop-opacity:1"/><stop offset="1" style="stop-color:#d630c8;stop-opacity:1"/></linearGradient><linearGradient id="_Linear28" x1="0" y1="0" x2="1" y2="-0.00209989" gradientUnits="userSpaceOnUse" gradientTransform="matrix(25.7602,5.01511,-4.98682,25.9063,48.1919,116.574)"><stop offset="0" style="stop-color:#c62cda;stop-opacity:1"/><stop offset="1" style="stop-color:#f856ce;stop-opacity:1"/></linearGradient><linearGradient id="_Linear29" x1="0" y1="0" x2="1" y2="0.00321435" gradientUnits="userSpaceOnUse" gradientTransform="matrix(22.8636,-7.35312,7.43156,23.3705,48.8141,85.319)"><stop offset="0" style="stop-color:#ed7d54;stop-opacity:1"/><stop offset="0.46" style="stop-color:#e1439e;stop-opacity:1"/><stop offset="1" style="stop-color:#de33b3;stop-opacity:1"/></linearGradient><linearGradient id="_Linear30" x1="0" y1="0" x2="1" y2="-0.00340344" gradientUnits="userSpaceOnUse" gradientTransform="matrix(12.678,21.9777,-31.6185,18.4469,62.332,52.9236)"><stop offset="0" style="stop-color:#de2fb4;stop-opacity:1"/><stop offset="1" style="stop-color:#e23fbb;stop-opacity:1"/></linearGradient><linearGradient id="_Linear31" x1="0" y1="0" x2="1" y2="0.00563337" gradientUnits="userSpaceOnUse" gradientTransform="matrix(62.725,-62.0687,61.9574,63.3249,96.7888,131.989)"><stop offset="0" style="stop-color:#fa5fba;stop-opacity:1"/><stop offset="0.16" style="stop-color:#ac50e1;stop-opacity:1"/><stop offset="0.34" style="stop-color:#954bec;stop-opacity:1"/><stop offset="0.67" style="stop-color:#4a8df5;stop-opacity:1"/><stop offset="1" style="stop-color:#38c3e0;stop-opacity:1"/></linearGradient><linearGradient id="_Linear32" x1="0" y1="0" x2="1" y2="0.0030124" gradientUnits="userSpaceOnUse" gradientTransform="matrix(23.0464,-4.20318,2.74128,15.2017,102.509,57.3009)"><stop offset="0" style="stop-color:#6840da;stop-opacity:1"/><stop offset="0.49" style="stop-color:#537af1;stop-opacity:1"/><stop offset="1" style="stop-color:#4d8cf8;stop-opacity:1"/></linearGradient><linearGradient id="_Linear33" x1="0" y1="0" x2="1" y2="-0.00550221" gradientUnits="userSpaceOnUse" gradientTransform="matrix(-18.7309,-14.9574,14.8731,-18.8372,158.384,65.8131)"><stop offset="0" style="stop-color:#47abf4;stop-opacity:1"/><stop offset="0.53" style="stop-color:#4aaaf4;stop-opacity:1"/><stop offset="1" style="stop-color:#52a8f2;stop-opacity:1"/></linearGradient></defs></svg>